<?xml version="1.0" standalone="no"?>
<!DOCTYPE svg PUBLIC "-//W3C//DTD SVG 20010904//EN"
 "http://www.w3.org/TR/2001/REC-SVG-20010904/DTD/svg10.dtd">
<svg version="1.0" xmlns="http://www.w3.org/2000/svg"
 width="1088.000000pt" height="1088.000000pt" viewBox="0 0 1088.000000 1088.000000"
 preserveAspectRatio="xMidYMid meet">
<metadata>
Created by potrace 1.11, written by Peter Selinger 2001-2013
</metadata>
<g transform="translate(0.000000,1088.000000) scale(0.100000,-0.100000)"
fill="#000000" stroke="none">
<path d="M2717 8162 l-2717 -2717 2718 -2718 2717 -2717 2718 2718 2717 2717
-2718 2718 -2717 2717 -2718 -2718z m7107 -2882 l-160 -160 -492 0 c-387 0
-492 3 -492 13 0 6 -3 22 -6 35 -5 19 -2 22 20 22 22 0 26 4 26 28 0 48 -13
52 -157 52 -114 0 -133 2 -133 16 0 8 36 51 80 95 l79 79 6 -33 c5 -24 1 -45
-13 -72 -24 -43 -19 -65 14 -65 33 0 41 22 46 125 5 78 3 93 -13 111 -15 16
-17 26 -9 54 10 36 5 69 -16 112 -13 25 -11 30 25 75 34 44 38 56 45 128 3 44
7 91 9 104 1 18 -6 29 -30 43 -29 17 -34 18 -60 4 -49 -25 -80 -69 -123 -171
-64 -156 -71 -167 -94 -160 -12 4 -61 10 -111 14 -49 4 -100 13 -112 19 -34
19 -57 102 -49 176 9 74 9 79 0 138 -6 43 -8 46 -26 37 -13 -7 -29 -7 -49 0
-40 14 -44 2 -44 -122 l0 -98 -20 25 c-26 32 -55 19 -55 -25 l0 -30 -30 18
c-35 20 -36 26 -11 73 17 32 18 37 3 67 -12 25 -22 33 -42 33 -16 0 -38 12
-58 33 -32 33 -32 34 -21 88 7 34 19 61 34 74 12 11 34 43 48 70 l25 50 -24
45 c-13 25 -23 55 -24 67 0 11 20 59 45 106 32 61 45 97 45 126 0 54 -21 54
-77 -1 l-44 -43 -23 29 c-29 37 -56 30 -56 -13 0 -40 -14 -46 -31 -15 -16 32
-81 84 -103 84 -30 0 -17 -57 35 -163 l52 -104 -27 -39 c-19 -28 -26 -51 -26
-84 0 -42 4 -50 53 -98 l53 -52 2 -73 c2 -71 0 -78 -48 -172 -47 -93 -50 -102
-50 -177 0 -43 -4 -78 -9 -78 -5 0 -19 21 -31 46 -24 48 -30 132 -15 205 5 26
2 46 -9 67 -9 17 -16 45 -16 61 0 29 -2 30 -26 21 -17 -7 -32 -7 -44 0 -29 16
-34 -2 -35 -145 -2 -132 -9 -165 -46 -217 l-21 -29 -100 3 -100 3 -32 90 c-48
132 -81 191 -126 224 -37 26 -43 28 -80 19 l-41 -11 7 -101 c5 -87 10 -108 36
-154 30 -53 30 -56 24 -150 -4 -54 -11 -101 -16 -106 -10 -10 -1 -195 12 -218
11 -22 18 -22 43 -4 17 13 18 15 2 55 -10 23 -17 53 -17 66 0 40 35 32 64 -14
14 -21 35 -47 48 -57 25 -20 58 -63 58 -76 0 -5 -67 -8 -150 -8 l-150 0 -6
-25 c-8 -31 10 -55 36 -48 18 5 20 0 20 -36 l0 -41 -625 0 c-606 0 -625 1
-625 19 0 32 30 178 45 221 26 75 65 281 75 395 10 129 -1 363 -26 530 -20
137 -15 479 10 590 8 39 22 108 31 155 9 47 23 95 30 106 8 12 42 35 77 52 35
16 118 65 185 108 67 44 163 103 212 133 l89 54 11 91 c6 50 16 197 21 326 8
201 12 243 30 289 24 61 20 96 -10 104 -17 4 -20 13 -20 67 0 68 -14 102 -64
158 -37 41 -116 186 -116 212 0 27 -53 70 -87 70 -35 0 -43 -13 -43 -73 0
-104 27 -211 76 -305 l49 -93 -24 -19 c-27 -20 -33 -50 -50 -245 -11 -130 -24
-198 -51 -280 -19 -55 -26 -64 -84 -102 -35 -24 -67 -43 -71 -43 -3 0 -56 -23
-118 -52 l-111 -51 -125 11 c-69 7 -129 16 -134 21 -4 4 13 28 39 52 26 24 64
71 85 103 38 58 39 60 39 155 0 174 -41 335 -101 397 -80 82 -245 115 -376 75
-103 -31 -162 -74 -197 -144 -26 -53 -29 -69 -34 -196 -6 -168 2 -239 32 -283
12 -18 58 -64 103 -102 44 -39 79 -75 76 -82 -6 -17 -47 -33 -117 -44 -205
-33 -324 -96 -411 -220 -30 -43 -78 -98 -106 -122 -29 -23 -63 -54 -76 -68
-13 -14 -36 -38 -52 -55 -15 -16 -50 -59 -76 -95 -27 -36 -67 -85 -90 -110
-22 -25 -46 -58 -52 -75 -15 -41 -33 -144 -33 -186 0 -69 91 -174 208 -241 30
-17 93 -62 139 -99 47 -38 91 -69 98 -69 7 0 50 7 95 16 45 8 100 14 122 12
l41 -3 2 -210 c2 -220 30 -472 91 -830 22 -128 24 -159 16 -218 -6 -38 -12
-70 -14 -72 -11 -11 -274 -132 -378 -175 -68 -28 -143 -61 -165 -74 l-41 -23
-38 33 c-21 18 -69 45 -107 59 -70 27 -73 30 -85 98 -7 44 -29 45 -29 1 0 -45
-27 -79 -76 -93 -99 -30 -163 -82 -199 -163 l-17 -39 -7 148 c-13 300 -26 692
-26 821 0 111 2 132 15 132 8 0 15 7 15 15 0 8 -7 15 -15 15 -8 0 -15 7 -15
15 0 8 7 15 15 15 8 0 15 9 15 20 0 11 -7 20 -15 20 -10 0 -15 9 -14 28 0 23
8 31 60 55 74 35 157 115 190 182 18 38 25 70 27 135 6 143 -48 248 -167 324
l-61 40 0 113 c0 69 4 113 10 113 6 0 10 7 10 15 0 11 -13 15 -54 15 -30 0
-57 3 -59 8 -3 4 -10 185 -16 402 -12 400 -19 545 -28 537 -3 -4 -32 -793 -33
-919 0 -27 -1 -28 -60 -28 -47 0 -60 -3 -60 -15 0 -8 5 -15 10 -15 6 0 10 -45
10 -114 l0 -114 -43 -25 c-63 -37 -122 -101 -154 -165 -25 -51 -28 -68 -28
-157 0 -91 3 -105 28 -154 38 -71 113 -143 186 -178 52 -24 60 -32 60 -55 1
-19 -4 -28 -14 -28 -8 0 -15 -9 -15 -20 0 -13 7 -20 20 -20 11 0 20 -5 20 -11
0 -6 -9 -13 -20 -16 -25 -7 -26 -33 -1 -33 18 0 19 -7 15 -102 -5 -114 -31
-843 -40 -1093 -8 -228 5 -206 -117 -203 l-102 3 -3 326 -2 326 25 47 c30 57
34 128 8 151 -104 88 -97 78 -95 137 1 49 -2 60 -28 86 -32 33 -33 38 -51 152
-21 139 -87 309 -162 420 -108 159 -237 256 -427 321 -52 18 -101 37 -108 42
-8 6 -12 36 -12 83 0 66 -2 74 -19 74 -60 0 -92 58 -98 180 -6 106 -8 116 -28
100 -10 -9 -13 -24 -9 -54 7 -46 -10 -146 -32 -188 -8 -15 -28 -31 -48 -38
-33 -11 -34 -12 -38 -75 -2 -36 -9 -70 -15 -76 -6 -6 -53 -21 -106 -35 -114
-29 -171 -52 -243 -100 -205 -136 -334 -345 -394 -634 -11 -58 -23 -115 -26
-127 -2 -12 -16 -35 -30 -50 -23 -25 -25 -33 -20 -76 6 -45 5 -50 -28 -83 -19
-19 -38 -34 -43 -34 -4 0 -94 86 -198 190 l-190 190 2275 2275 2275 2275 2275
-2275 2275 -2275 -161 -160z m-5725 4033 c11 -23 10 -28 -6 -37 -29 -16 -73
-63 -73 -79 0 -8 7 -20 15 -27 12 -10 26 -9 74 9 104 38 166 20 191 -53 12
-37 -4 -91 -38 -130 -19 -21 -92 -76 -101 -76 -4 0 -15 13 -24 30 -18 29 -18
29 10 44 40 20 83 65 83 86 0 10 -7 24 -16 31 -13 11 -26 10 -77 -9 -86 -31
-122 -29 -159 8 -27 28 -30 36 -26 79 5 53 28 89 80 128 41 30 52 29 67 -4z
m2823 -100 c80 -81 104 -149 79 -216 -16 -40 -73 -99 -116 -118 -84 -38 -158
-14 -258 83 l-60 59 133 134 c103 103 137 132 149 125 9 -5 42 -35 73 -67z
m-3073 -189 c29 -21 51 -71 44 -105 -4 -23 -2 -26 26 -27 17 0 59 -17 93 -38
l61 -37 -32 -29 -32 -29 -53 31 c-60 34 -91 38 -118 13 -18 -16 -17 -19 34
-70 l52 -53 -29 -30 -30 -30 -134 134 -134 134 57 60 c84 88 144 111 195 76z
m3426 -164 l79 -79 -24 -26 -24 -25 -53 52 -53 52 -27 -27 -27 -27 49 -50 49
-50 -24 -25 -24 -25 -51 50 -51 50 -33 -33 -32 -34 58 -56 58 -56 -25 -26 -24
-26 -88 88 -88 88 132 132 c73 73 135 133 138 133 3 0 41 -36 85 -80z m-1091
-113 c17 -24 21 -41 18 -95 -1 -37 3 -91 10 -120 14 -63 34 -85 25 -26 -16 91
-19 144 -10 144 10 0 43 -63 43 -83 0 -7 18 -31 41 -52 68 -66 80 -102 58
-177 -11 -41 -27 -46 -98 -32 -28 6 -31 10 -31 42 0 26 -11 50 -40 88 -22 29
-44 64 -50 76 -15 38 -42 226 -35 248 9 29 42 22 69 -13z m-2669 3 c18 -20 18
-22 -35 -75 l-54 -55 29 -30 29 -30 51 50 51 50 22 -23 22 -23 -45 -44 c-25
-24 -45 -49 -45 -55 0 -6 14 -24 30 -40 l30 -29 55 54 55 54 23 -24 24 -25
-87 -82 -86 -82 -134 134 -135 135 80 80 c44 44 85 80 91 80 6 0 19 -9 29 -20z
m-130 -520 c53 53 55 53 75 35 11 -10 19 -23 19 -29 -1 -6 -38 -46 -83 -88
l-82 -78 -134 135 -134 134 29 31 29 30 113 -112 113 -112 55 54z m4462 68
c33 -35 66 -73 72 -85 30 -59 -10 -128 -73 -126 l-36 1 6 -39 c6 -35 3 -42
-29 -74 -58 -58 -118 -43 -220 58 l-60 58 134 135 c73 74 136 134 139 134 3 0
33 -28 67 -62z m-1484 -38 c51 -11 53 -14 38 -58 -8 -21 -19 -157 -27 -327 -7
-159 -18 -308 -23 -330 -6 -22 -21 -49 -34 -60 -47 -38 -329 -210 -460 -280
-123 -67 -173 -106 -115 -92 l24 6 -22 -122 c-13 -67 -27 -140 -31 -162 l-9
-40 -62 0 c-34 1 -124 2 -199 3 l-138 2 -3 153 c-2 83 -10 198 -18 254 -9 67
-11 110 -5 126 7 19 35 36 120 73 116 50 125 59 100 106 -11 21 -10 21 57 13
146 -18 159 -15 328 68 84 41 157 80 161 86 16 27 25 8 19 -40 -5 -41 -4 -51
6 -47 9 3 22 51 36 129 13 68 30 153 40 189 9 36 19 103 23 150 6 78 8 85 29
88 27 4 29 19 2 27 -21 7 -26 37 -13 84 6 22 8 23 72 16 36 -4 83 -10 104 -15z
m-3248 -290 c53 53 55 53 75 35 11 -10 19 -23 19 -29 -1 -6 -38 -46 -83 -88
l-82 -78 -134 135 -134 134 29 31 29 30 113 -112 113 -112 55 54z m2294 83
c47 -35 64 -102 58 -230 -3 -92 -9 -121 -28 -160 -26 -53 -72 -89 -126 -99
-75 -14 -197 35 -241 96 -13 20 -18 52 -20 155 -5 184 13 238 86 257 15 4 76
5 136 4 89 -3 113 -7 135 -23z m2766 -83 l79 -79 -24 -26 -24 -25 -53 52 -53
52 -27 -27 -27 -27 49 -50 49 -50 -24 -25 -24 -25 -51 50 -51 50 -33 -33 -32
-34 58 -56 58 -56 -25 -26 -24 -26 -88 88 -88 88 132 132 c73 73 135 133 138
133 3 0 41 -36 85 -80z m-5490 -30 c18 -20 18 -22 -35 -75 l-54 -55 29 -30 29
-30 51 50 51 50 22 -23 22 -23 -45 -44 c-25 -24 -45 -49 -45 -55 0 -6 14 -24
30 -40 l30 -29 55 54 55 54 23 -24 24 -25 -87 -82 -86 -82 -134 134 -135 135
80 80 c44 44 85 80 91 80 6 0 19 -9 29 -20z m5762 -232 c33 -35 66 -73 72 -85
34 -67 -13 -143 -88 -143 -35 0 -41 -3 -41 -21 0 -12 -17 -53 -37 -90 l-37
-69 -30 30 -31 30 33 65 c33 64 33 73 4 108 -15 17 -19 15 -69 -35 l-53 -52
-30 29 -31 29 133 133 c73 73 135 133 138 133 3 0 33 -28 67 -62z m-6040 -96
l-37 -38 110 -109 110 -110 -30 -30 -30 -30 -110 110 -110 109 -38 -37 -38
-37 -24 25 -24 26 104 104 105 105 24 -25 25 -25 -37 -38z m3003 -77 c0 -8
-30 -37 -66 -64 l-65 -50 -70 42 c-38 23 -68 46 -66 52 2 5 42 11 88 11 46 1
98 6 114 12 44 15 65 14 65 -3z m70 -51 c0 -8 -2 -14 -4 -14 -2 0 -47 -20
-100 -45 -53 -24 -96 -41 -96 -37 0 4 39 35 87 69 66 48 90 60 100 52 7 -7 13
-18 13 -25z m-287 -45 c31 -18 57 -37 57 -42 0 -10 -59 0 -125 22 -52 17 -67
39 -44 67 10 12 15 12 33 1 12 -7 47 -29 79 -48z m-153 12 c0 -38 7 -42 110
-66 83 -20 84 -21 91 -55 15 -77 29 -223 35 -371 l7 -157 -89 -7 c-108 -8
-278 -32 -324 -45 -18 -5 -35 -8 -38 -6 -2 3 -8 33 -12 68 -9 62 -19 108 -25
108 -2 0 -25 -9 -51 -21 -34 -14 -85 -57 -175 -145 l-126 -125 -24 19 c-45 36
-88 52 -134 52 -58 0 -57 -21 2 -25 73 -6 128 -46 188 -140 38 -60 81 -105
142 -146 l44 -31 -50 -53 c-39 -41 -51 -61 -51 -84 0 -45 -18 -39 -100 29 -40
33 -105 79 -144 102 -83 48 -170 135 -186 184 -9 26 -9 52 0 102 15 89 40 142
93 199 24 26 62 73 85 105 23 31 55 66 72 78 16 12 30 30 30 41 0 10 6 19 14
19 19 0 184 175 204 217 18 37 90 90 176 128 46 20 104 35 196 49 14 2 28 4
33 5 4 0 7 -12 7 -28z m3683 -19 l27 -28 -110 -109 -110 -110 55 -55 55 -56
-25 -24 -26 -24 -84 84 -85 85 132 132 c73 73 135 133 138 133 4 0 18 -13 33
-28z m-6614 -79 c11 -23 10 -28 -6 -37 -29 -16 -73 -63 -73 -79 0 -8 7 -20 15
-27 12 -10 26 -9 74 9 104 38 166 20 191 -53 12 -37 -4 -91 -38 -130 -19 -21
-92 -76 -101 -76 -4 0 -15 13 -24 30 -18 29 -18 29 10 44 40 20 83 65 83 86 0
10 -7 24 -16 31 -13 11 -26 10 -77 -9 -86 -31 -122 -29 -159 8 -27 28 -30 36
-26 79 5 53 28 89 80 128 41 30 52 29 67 -4z m6894 -191 l27 -28 -135 -134
-134 -134 -31 29 -31 29 133 133 c73 73 135 133 138 133 4 0 18 -13 33 -28z
m-7097 -212 c92 -50 170 -92 173 -95 3 -3 -9 -20 -26 -36 l-31 -31 -47 27 -47
28 -40 -41 -41 -40 26 -44 26 -45 -32 -31 -31 -31 -92 177 -93 177 37 38 c20
20 39 37 43 37 4 0 82 -41 175 -90z m7282 17 l32 -33 -30 -110 c-16 -60 -37
-127 -46 -149 -14 -36 -7 -30 79 60 l95 100 28 -28 29 -27 -135 -135 -134
-135 -32 31 -32 31 24 86 c13 48 33 114 44 146 11 33 20 63 20 67 0 3 -44 -38
-97 -92 l-97 -99 -28 27 -29 27 133 133 c73 73 135 133 138 133 4 0 20 -15 38
-33z m-4389 -184 c17 -124 30 -342 24 -375 -4 -23 -11 -26 -63 -32 -69 -8
-107 7 -181 73 -49 42 -109 127 -109 152 0 18 225 247 260 266 51 26 56 20 69
-84z m-3294 -19 c16 -24 16 -26 -2 -40 -10 -7 -21 -14 -25 -14 -4 0 -20 -18
-34 -40 -21 -31 -25 -48 -21 -75 12 -74 86 -133 151 -121 31 6 106 68 106 88
0 5 14 1 30 -9 17 -9 30 -21 30 -25 0 -17 -86 -100 -122 -119 -69 -35 -147
-22 -207 34 -67 64 -87 147 -52 222 17 38 100 125 120 125 5 0 16 -12 26 -26z
m3457 -426 c46 -20 63 -38 34 -38 -8 0 -33 9 -57 20 -47 21 -89 26 -89 10 0
-5 17 -14 38 -19 45 -13 102 -47 102 -61 0 -6 -21 0 -47 13 -57 29 -103 41
-103 28 0 -5 10 -13 22 -17 52 -16 88 -35 83 -44 -3 -5 -25 -2 -50 6 -53 19
-98 14 -50 -5 68 -26 71 -31 15 -24 -49 6 -82 6 -230 0 -45 -2 -50 19 -15 72
30 45 70 67 146 80 70 12 141 5 201 -21z m742 -25 c15 -72 36 -286 36 -363 -1
-196 -27 -415 -65 -540 -72 -233 -80 -433 -27 -720 35 -193 47 -314 58 -562
l7 -166 -59 -12 c-32 -6 -67 -14 -76 -16 -23 -7 -23 9 -2 90 9 36 26 72 42 89
22 23 27 39 30 97 4 60 1 78 -22 123 -14 28 -35 81 -46 117 -12 41 -33 82 -56
108 -38 45 -126 102 -157 102 -20 0 -31 25 -55 125 -15 62 -17 127 -14 538 3
420 0 518 -14 504 -2 -2 -6 -121 -8 -263 -2 -142 -11 -335 -20 -429 -45 -479
-45 -480 -83 -490 -37 -9 -106 -59 -142 -102 -31 -38 -61 -110 -61 -147 0 -12
-11 -42 -25 -68 -20 -38 -25 -62 -25 -118 0 -73 9 -102 40 -130 10 -8 27 -42
38 -75 11 -33 23 -67 26 -75 6 -14 -3 -15 -64 -9 -39 3 -75 10 -80 15 -10 12
-40 274 -40 358 0 87 26 285 56 431 49 235 50 261 21 440 -63 378 -80 532 -84
778 l-5 237 51 0 c36 0 51 4 51 13 0 8 18 20 41 27 34 12 40 17 36 37 -2 13 0
23 5 23 5 0 13 11 18 25 11 29 21 30 402 33 l266 2 6 -27z m2666 -617 c0 -18
-17 -39 -42 -52 -26 -14 -35 -13 -84 1 -30 8 -54 17 -54 19 0 3 -3 11 -6 20
-5 14 6 16 90 16 53 0 96 -2 96 -4z m-1042 -65 c8 -4 24 -44 37 -87 12 -43 30
-103 38 -131 19 -64 7 -70 -47 -22 -33 28 -35 33 -29 79 5 42 1 55 -26 103
-17 30 -31 57 -31 61 0 9 43 7 58 -3z m930 -17 c16 -5 15 -36 -3 -60 -8 -10
-15 -39 -15 -64 0 -42 -4 -50 -60 -105 l-60 -59 0 34 c0 19 14 82 31 140 17
58 33 111 35 118 3 11 26 10 72 -4z m12 -278 c0 -23 -5 -47 -12 -54 -7 -7 -39
-12 -75 -12 l-63 0 63 63 c70 71 87 72 87 3z m-894 3 c30 -29 54 -56 54 -60 0
-14 -104 -11 -118 3 -15 15 -16 108 -1 108 5 0 35 -23 65 -51z m226 -8 c10
-30 17 -55 15 -56 -1 -1 -28 -5 -59 -8 l-58 -6 0 65 0 65 42 -3 c40 -3 42 -4
60 -57z m426 47 c7 -7 12 -34 12 -60 l0 -48 -60 0 c-59 0 -60 1 -60 28 0 44
35 92 68 92 15 0 33 -5 40 -12z m-2327 -464 c28 -14 95 -41 148 -59 207 -72
494 -208 588 -278 40 -30 42 -35 43 -81 0 -27 -23 -166 -52 -309 -62 -309 -49
-292 -192 -260 -128 29 -158 43 -181 86 l-19 36 42 88 c23 48 53 119 67 156
l25 69 -142 137 c-192 186 -231 218 -304 254 -40 20 -65 38 -68 51 -10 43 -18
136 -12 136 4 0 29 -12 57 -26z m-835 -201 l-21 -102 -100 -68 c-55 -37 -147
-113 -205 -169 l-104 -102 52 -109 c29 -61 52 -117 52 -126 0 -9 -17 -28 -38
-42 -44 -29 -210 -87 -224 -79 -18 11 -59 115 -80 203 -14 58 -21 121 -22 193
l-1 107 55 56 c78 79 117 103 317 189 98 42 214 94 258 115 44 21 81 38 81 37
1 -1 -8 -47 -20 -103z m-30 -190 c-19 -136 -18 -321 3 -498 12 -99 21 -184 21
-188 0 -4 -37 -7 -82 -5 l-82 3 -23 40 c-13 22 -31 64 -40 93 -9 29 -31 70
-49 90 -17 20 -50 74 -73 120 l-42 83 62 67 c78 83 125 123 210 178 37 23 70
47 74 53 16 28 27 9 21 -36z m620 -5 c47 -16 67 -51 85 -153 7 -38 13 -71 15
-73 1 -2 12 3 23 10 27 16 36 4 45 -57 8 -47 -5 -89 -36 -122 -12 -12 -31 -61
-44 -109 -13 -47 -34 -100 -47 -117 -26 -35 -177 -117 -214 -117 -32 0 -151
45 -175 66 -25 23 -98 170 -98 198 0 11 -12 32 -26 47 -32 33 -47 98 -39 161
8 55 20 62 29 17 8 -43 22 -28 29 32 8 65 42 166 66 198 12 16 34 27 62 32 62
11 278 2 325 -13z m634 -577 c35 -19 214 -61 264 -61 31 0 31 -3 9 -41 -13
-22 -27 -30 -60 -35 -51 -7 -56 -21 -10 -26 28 -3 32 -6 30 -32 -1 -16 -4 -31
-7 -33 -3 -3 -42 0 -86 7 -62 10 -93 20 -128 44 -26 18 -68 44 -93 59 -26 14
-49 34 -53 42 -7 18 20 76 40 88 8 4 14 22 14 40 l0 32 23 -32 c12 -18 38 -41
57 -52z m-1495 27 c4 -18 13 -36 19 -40 8 -5 5 -18 -8 -43 -49 -91 -150 -154
-260 -162 l-62 -5 -12 38 c-7 22 -14 57 -15 78 l-2 40 119 36 c72 22 131 47
150 63 43 36 63 34 71 -5z m1097 -134 c5 -61 16 -104 47 -178 47 -113 50 -130
21 -121 -16 5 -20 2 -20 -16 0 -18 -3 -20 -12 -11 -18 18 -28 15 -28 -10 0
-20 -1 -20 -18 -5 -24 22 -32 21 -32 -3 0 -26 -7 -25 -31 3 l-18 22 -1 -32 c0
-30 -3 -33 -30 -33 -37 0 -46 17 -34 72 8 39 12 42 54 52 38 9 45 15 48 39 5
44 -25 132 -58 167 -27 29 -31 40 -28 79 l3 46 45 6 c86 12 84 14 92 -77z
m-647 48 c3 -8 8 -38 11 -68 6 -50 5 -56 -25 -90 -45 -51 -75 -116 -68 -146 7
-26 37 -38 94 -38 21 0 24 -4 21 -32 -4 -44 -42 -52 -60 -13 -13 30 -33 28
-32 -4 0 -11 -3 -21 -8 -21 -4 0 -8 14 -8 31 0 27 -2 30 -15 19 -8 -7 -15 -19
-15 -27 0 -22 -25 -9 -26 13 -2 37 -5 39 -24 14 -19 -24 -20 -24 -20 -4 0 28
-10 36 -27 22 -12 -10 -13 -7 -7 18 4 16 18 58 31 94 22 58 24 74 18 157 l-7
93 81 -3 c56 -1 82 -6 86 -15z m485 -95 l0 -92 -47 -25 c-26 -14 -75 -51 -109
-83 l-62 -58 -36 25 c-20 13 -69 36 -111 51 -41 15 -79 33 -83 39 -12 15 0
172 13 169 6 -1 39 -14 75 -29 106 -44 136 -43 222 4 40 23 87 53 103 66 17
14 31 25 33 26 1 0 2 -42 2 -93z m-836 6 c24 -38 67 -90 94 -117 50 -48 50
-48 36 -82 -23 -55 -18 -80 18 -98 17 -9 36 -16 41 -16 6 0 18 -7 27 -15 11
-10 43 -17 90 -19 79 -5 103 8 116 60 6 23 10 25 38 20 17 -3 59 -20 94 -37
l62 -30 0 -355 0 -354 -284 0 c-228 0 -286 3 -295 14 -18 21 -86 194 -121 307
-18 58 -71 180 -121 281 -49 98 -89 184 -89 191 0 7 -18 42 -39 78 l-39 64 76
18 c88 20 120 38 187 106 27 28 52 51 56 51 4 0 28 -30 53 -67z m1316 -3 c41
-27 85 -57 97 -65 12 -9 57 -23 100 -30 43 -8 79 -14 80 -15 6 -1 -112 -238
-135 -273 -16 -23 -39 -60 -50 -83 -25 -49 -86 -312 -103 -442 -10 -81 -14
-93 -33 -97 -11 -2 -100 -7 -196 -10 -96 -3 -229 -8 -296 -11 l-121 -6 -6 212
c-4 117 -7 277 -7 355 0 161 2 164 90 204 70 32 76 30 75 -36 0 -52 3 -58 27
-72 25 -14 31 -14 60 1 18 9 51 22 73 29 71 22 95 34 95 46 0 7 9 13 19 13 32
0 33 34 3 110 l-29 73 79 73 c43 41 84 74 91 74 7 0 46 -23 87 -50z m-415 -84
c8 -20 15 -49 15 -65 0 -25 -5 -32 -27 -37 -74 -16 -142 -38 -188 -61 l-50
-25 50 51 c28 29 73 63 102 76 57 27 68 47 58 103 -6 36 -6 36 10 15 9 -13 22
-38 30 -57z m2605 -18 c0 -29 -42 -74 -440 -473 l-440 -440 0 473 0 472 440 0
440 0 0 -32z m-1290 -650 l0 -672 -205 -206 -205 -205 0 878 0 877 205 0 205
0 0 -672z m-1849 586 c5 -7 50 -26 99 -44 49 -18 95 -39 102 -48 11 -13 10
-15 -5 -9 -33 12 -132 36 -199 47 -38 7 -68 17 -68 22 0 6 12 32 28 59 l27 49
3 -32 c2 -18 8 -38 13 -44z m961 -1671 c14 -12 18 -31 18 -82 0 -36 9 -124 20
-195 l20 -130 -37 -40 c-110 -119 -600 -606 -609 -606 -7 0 -170 160 -362 355
l-350 356 -7 122 c-4 67 -5 138 -3 157 l3 35 145 12 c221 17 394 19 625 6 192
-11 222 -11 345 6 174 24 170 24 192 4z"/>
<path d="M6767 9102 c-56 -57 -86 -93 -82 -103 12 -30 59 -54 107 -54 41 0 52
5 87 39 64 63 64 123 -1 183 l-24 23 -87 -88z"/>
<path d="M3727 8932 l-27 -28 40 -39 41 -40 24 30 c29 36 31 66 7 88 -27 25
-55 21 -85 -11z"/>
<path d="M7767 8232 c-33 -35 -34 -45 -2 -66 64 -42 112 7 64 68 -26 33 -29
32 -62 -2z"/>
<path d="M7646 8111 l-37 -38 31 -27 c34 -28 51 -32 81 -16 25 14 25 60 -2 94
-11 14 -24 26 -28 26 -4 0 -24 -17 -45 -39z"/>
<path d="M8356 7631 l-36 -37 22 -21 c34 -30 58 -35 84 -18 36 23 28 82 -15
104 -14 8 -25 3 -55 -28z"/>
<path d="M1740 6946 c0 -10 73 -126 79 -126 9 0 51 44 51 52 0 5 -117 78 -126
78 -2 0 -4 -2 -4 -4z"/>
</g>
</svg>
