<?xml version="1.0" encoding="UTF-8" standalone="no"?>
<svg
   xmlns:dc="http://purl.org/dc/elements/1.1/"
   xmlns:cc="http://creativecommons.org/ns#"
   xmlns:rdf="http://www.w3.org/1999/02/22-rdf-syntax-ns#"
   xmlns:svg="http://www.w3.org/2000/svg"
   xmlns="http://www.w3.org/2000/svg"
   viewBox="250 100 600 580"
   height="400"
   width="400"
   xml:space="preserve"
   id="svg2"
   version="1.1"><metadata
     id="metadata8"><rdf:RDF><cc:Work
         rdf:about=""><dc:format>image/svg+xml</dc:format><dc:type
           rdf:resource="http://purl.org/dc/dcmitype/StillImage" /></cc:Work></rdf:RDF></metadata><defs
     id="defs6"><clipPath
       id="clipPath18"
       clipPathUnits="userSpaceOnUse"><path
         id="path16"
         d="M 0,595.28 H 841.89 V 0 H 0 Z" /></clipPath></defs><g
     transform="matrix(1.3333333,0,0,-1.3333333,0,793.70667)"
     id="g10"><g
       id="g12"><g
         clip-path="url(#clipPath18)"
         id="g14"><g
           transform="translate(322.77,461.4126)"
           id="g20"><path
             id="path22"
             style="fill:#000000;fill-opacity:1;fill-rule:evenodd;stroke:none"
             d="m 0,0 c -0.009,-0.075 -0.018,-0.15 -0.026,-0.225 -0.918,0 -1.838,0.045 -2.753,-0.009 -1.621,-0.097 -2.186,-0.615 -2.583,-2.185 -0.302,-1.196 0.007,-2.296 0.849,-3.081 1.043,-0.976 2.168,-1.965 3.437,-2.578 3.426,-1.652 7.52,0.005 9.013,2.601 C 9.165,-3.34 8.412,-1.302 6.022,-0.82 4.04,-0.419 2.009,-0.264 0,0 m 6.022,17.088 c -0.296,1.938 -0.683,3.513 -1.439,4.808 -1.373,2.35 -5.084,2.671 -6.751,0.526 -2.323,-2.987 -1.788,-8.195 1.269,-10.484 2.211,-1.656 4.518,-1.213 5.714,1.272 0.58,1.207 0.815,2.58 1.207,3.878 M -9.191,2.943 c 0.767,2.464 3.138,3.476 4.363,5.594 -0.263,0.35 -0.543,0.773 -0.873,1.152 -0.947,1.091 -1.966,2.123 -2.863,3.252 -2.225,2.801 -1.826,6.242 0.076,9.003 2.112,3.065 5.082,4.676 8.863,4.644 0.791,-0.006 1.582,-0.046 2.371,-0.018 2.246,0.08 4.431,0.261 6.292,1.826 1.447,1.218 3.175,1.078 4.878,0.497 0.737,-0.253 1.013,-0.726 0.833,-1.527 -0.342,-1.515 -1.695,-2.576 -3.164,-2.285 -1.497,0.297 -1.522,0.166 -2.798,-0.424 0.29,-0.433 0.498,-0.901 0.839,-1.231 C 14.304,18.907 12.345,12.136 7.927,9.784 7.179,9.386 6.514,8.797 5.731,8.511 4.965,8.231 4.101,8.148 3.275,8.117 2.027,8.07 0.774,8.163 -0.477,8.155 -0.863,8.152 -1.337,8.128 -1.613,7.913 -2.036,7.581 -2.545,7.107 -2.615,6.635 -2.72,5.907 -2.154,5.451 -1.394,5.382 0.567,5.207 2.528,5.032 4.49,4.876 6.323,4.732 8.157,4.613 9.99,4.479 c 2.711,-0.197 4.464,-2.31 4.554,-4.887 0.103,-2.898 -0.514,-5.771 -2.766,-7.963 -1.95,-1.9 -4.337,-2.999 -6.961,-3.463 -2.314,-0.411 -4.629,-0.561 -7.03,-0.053 -2.843,0.6 -5.156,1.968 -7.186,3.884 -1.965,1.854 -1.702,3.772 0.553,5.182 0.223,0.139 0.474,0.236 0.689,0.384 2.221,1.542 2.254,2.075 0.286,3.977 -0.423,0.408 -0.808,0.856 -1.32,1.403" /></g><g
           transform="translate(349.6172,460.6719)"
           id="g24"><path
             id="path26"
             style="fill:#000000;fill-opacity:1;fill-rule:evenodd;stroke:none"
             d="m 0,0 c 0,0.041 0,0.083 0.001,0.124 h -3.545 c -0.066,0.001 -0.131,0.012 -0.197,0.01 -1.298,-0.038 -2.228,-0.729 -2.624,-1.947 -0.518,-1.6 0.335,-3.677 2.03,-4.94 3.348,-2.494 7.626,-2.062 10.479,1.05 1.032,1.127 1.282,2.463 0.789,3.84 -0.476,1.331 -1.688,1.786 -3,1.849 C 2.624,0.049 1.311,0 0,0 m 4.305,17.742 c 0.161,1.799 -0.491,3.292 -1.475,4.782 -1.834,2.774 -6.298,1.886 -7.529,-0.798 -1.524,-3.321 -0.308,-7.408 2.079,-9.341 0.744,-0.603 1.935,-1.144 2.809,-1.005 2.654,0.422 3.728,1.827 4.014,4.59 0.061,0.588 0.069,1.181 0.102,1.772 M -7.816,0.062 c -1.16,1.149 -2.085,2.064 -3.125,3.094 0.812,1.722 2.264,2.896 3.46,4.237 1.35,1.512 1.407,1.522 -0.132,2.899 -0.926,0.83 -1.95,1.614 -2.657,2.613 -2.354,3.328 -1.784,7.877 1.579,11.078 1.932,1.84 4.161,2.926 6.922,2.836 1.569,-0.05 3.147,0.128 4.721,0.221 1.726,0.1 3.121,0.972 4.423,1.999 1.391,1.097 2.914,1.151 4.479,0.597 1.313,-0.464 1.533,-1.33 0.705,-2.462 C 11.767,26.093 10.667,25.573 9.329,25.558 8.755,25.551 8.18,25.557 7.608,25.557 7.208,24.451 7.98,23.88 8.464,23.225 9.534,21.772 10.317,20.269 10.421,18.376 10.66,13.979 7.134,8.728 1.244,8.37 0.325,8.314 -0.6,8.369 -1.521,8.35 -1.978,8.34 -2.49,8.394 -2.873,8.206 -3.297,7.999 -3.892,7.547 -3.89,7.205 -3.888,6.72 -3.507,5.939 -3.113,5.808 -2.077,5.463 -0.947,5.265 0.146,5.257 1.782,5.245 3.417,5.467 5.055,5.552 6.864,5.647 8.583,5.34 10.181,4.41 c 1.82,-1.062 2.698,-2.675 2.738,-4.712 0.107,-5.36 -3.032,-9.201 -7.857,-10.891 -5.775,-2.024 -11.009,-0.594 -15.661,3.226 -0.402,0.33 -0.778,0.72 -1.076,1.147 -0.87,1.244 -0.795,2.258 0.299,3.36 0.692,0.699 1.512,1.268 2.226,1.948 0.456,0.434 0.823,0.962 1.334,1.574" /></g><g
           transform="translate(390.6514,490.1221)"
           id="g28"><path
             id="path30"
             style="fill:#000000;fill-opacity:1;fill-rule:evenodd;stroke:none"
             d="m 0,0 c -0.668,-0.961 -1.244,-1.601 -1.604,-2.344 -1.256,-2.593 -2.463,-5.211 -3.633,-7.844 -0.533,-1.197 -0.922,-2.458 -1.404,-3.679 -0.317,-0.802 -0.191,-1.4 0.715,-1.789 0.723,0.51 1.537,0.96 2.194,1.577 0.992,0.933 2.049,1.224 3.411,1.067 1.079,-0.123 2.21,0.116 3.307,0.262 0.696,0.094 0.914,0.556 0.882,1.278 C 3.714,-8.08 2.914,-4.86 1.374,-1.838 1.072,-1.248 0.574,-0.757 0,0 m -5.013,-28.69 c -2.892,-0.618 -5.713,-0.312 -8.51,-0.031 -1.97,0.199 -2.778,1.305 -2.526,3.252 0.159,1.227 0.435,2.488 0.929,3.615 2.41,5.481 4.881,10.936 7.39,16.373 1.542,3.341 3.126,6.668 4.814,9.937 1.054,2.04 2.321,3.973 3.529,5.931 0.264,0.428 0.683,0.762 1.196,1.32 0.545,-0.605 1.198,-1.04 1.434,-1.641 1.496,-3.787 2.854,-7.628 4.346,-11.417 2.386,-6.059 4.804,-12.106 7.291,-18.122 0.723,-1.747 1.739,-3.37 2.601,-5.06 0.758,-1.487 1.182,-3.047 0.997,-4.901 -0.561,-0.052 -1.061,-0.162 -1.554,-0.135 -1.705,0.094 -3.406,0.273 -5.113,0.347 -1.032,0.046 -1.77,0.413 -2.144,1.412 -0.574,1.536 -1.182,3.059 -1.729,4.604 -0.351,0.99 -0.562,2.033 -0.945,3.008 -0.359,0.915 -1.042,1.453 -2.114,1.501 -3.083,0.137 -6.165,0.311 -9.246,0.51 -2.202,0.144 -4.261,-1.405 -4.662,-3.679 -0.102,-0.583 -0.269,-1.157 -0.346,-1.742 -0.188,-1.421 0.276,-2.261 1.6,-2.803 0.667,-0.273 1.383,-0.422 2.079,-0.622 0.8,-0.229 1.031,-0.733 0.683,-1.657" /></g><g
           transform="translate(426.6328,474.9414)"
           id="g32"><path
             id="path34"
             style="fill:#000000;fill-opacity:1;fill-rule:evenodd;stroke:none"
             d="m 0,0 h 0.104 c 0,1.443 -0.009,2.887 0.002,4.33 0.02,2.426 -0.833,4.38 -3.1,5.482 -1.874,0.909 -4.924,0.221 -6.513,-1.499 -2.913,-3.153 -3.952,-6.933 -3.213,-11.111 0.7,-3.965 3.193,-6.334 7.242,-6.515 C -2.384,-9.45 -0.02,-8.549 0,-4.73 0.007,-3.154 0,-1.577 0,0 m 5.879,24.042 c 0,-2.615 -0.004,-4.973 0,-7.331 C 5.885,10.332 5.917,3.951 5.897,-2.429 5.885,-6.18 5.775,-9.93 5.753,-13.681 c -0.007,-0.983 -0.416,-1.471 -1.37,-1.544 -0.526,-0.04 -1.051,-0.109 -1.577,-0.116 -2.165,-0.03 -2.72,0.402 -3.35,2.509 -0.106,0.354 -0.3,0.683 -0.578,1.307 -0.649,-0.621 -1.168,-1.076 -1.64,-1.575 -0.496,-0.525 -0.873,-1.194 -1.441,-1.61 -0.6,-0.44 -1.361,-0.921 -2.055,-0.925 -4.784,-0.02 -8.536,1.912 -10.872,6.198 -0.465,0.853 -0.774,1.823 -0.979,2.776 -1.178,5.477 -0.459,10.608 2.963,15.191 2.966,3.972 7.112,5.147 11.831,4.958 0.909,-0.037 1.821,-0.006 2.854,-0.006 0.094,0.452 0.262,0.885 0.255,1.314 -0.024,1.38 -0.223,2.765 -0.149,4.137 0.096,1.837 -0.888,2.775 -2.405,3.402 -0.697,0.29 -1.767,0.381 -1.484,1.446 0.234,0.878 1.216,0.589 1.888,0.573 2.619,-0.064 5.236,-0.192 8.235,-0.312" /></g><g
           transform="translate(279.3164,500.7637)"
           id="g36"><path
             id="path38"
             style="fill:#000000;fill-opacity:1;fill-rule:evenodd;stroke:none"
             d="m 0,0 c 0.515,0.195 0.958,0.502 1.406,0.51 2.689,0.042 5.383,-0.071 8.068,0.051 1.361,0.061 2.096,-0.459 2.572,-1.628 1.741,-4.266 3.5,-8.525 5.239,-12.792 1.564,-3.84 3.093,-7.694 4.681,-11.523 0.257,-0.617 0.741,-1.14 1.331,-2.023 0.714,1.39 1.377,2.377 1.753,3.464 1.936,5.598 3.828,11.213 5.657,16.847 0.317,0.979 0.348,2.077 0.357,3.122 0.016,1.909 -0.777,2.865 -2.661,3.395 -0.695,0.197 -1.443,0.27 -2.084,0.572 -0.319,0.15 -0.564,0.677 -0.616,1.065 -0.022,0.162 0.538,0.568 0.845,0.581 2.886,0.119 5.777,0.295 8.66,0.205 1.502,-0.046 2.259,-1.555 1.862,-3.313 -0.423,-1.86 -0.922,-3.705 -1.462,-5.535 -1.153,-3.913 -2.175,-7.877 -3.583,-11.698 -1.75,-4.751 -3.839,-9.377 -5.777,-14.058 -0.706,-1.704 -1.397,-3.414 -2.095,-5.121 -0.326,-0.797 -0.584,-1.673 -1.689,-1.663 -1.038,0.009 -1.715,0.541 -2.123,1.486 -1.538,3.566 -3.092,7.125 -4.634,10.691 -1.149,2.66 -2.291,5.323 -3.429,7.989 -1.754,4.114 -3.488,8.238 -5.262,12.344 C 6.599,-6.067 6.117,-5.119 5.559,-4.229 4.805,-3.028 3.826,-2.078 2.308,-1.885 1.345,-1.762 0.537,-1.366 0,0" /></g><g
           transform="translate(531.9307,467.6943)"
           id="g40"><path
             id="path42"
             style="fill:#000000;fill-opacity:1;fill-rule:evenodd;stroke:none"
             d="m 0,0 c 0.623,-0.344 1.084,-0.719 1.607,-0.857 0.82,-0.219 1.678,-0.355 2.529,-0.391 3.844,-0.164 7.608,0.19 11.125,1.938 0.176,0.088 0.367,0.146 0.551,0.214 0.629,0.233 1.398,0.53 1.771,-0.166 0.203,-0.377 -0.058,-1.111 -0.294,-1.593 -0.664,-1.358 -1.393,-2.686 -2.15,-3.994 -1.002,-1.728 -2.437,-2.72 -4.533,-2.563 -3.149,0.236 -6.302,0.412 -9.45,0.667 -2.831,0.23 -5.639,0.358 -8.346,-0.77 -0.335,-0.14 -0.753,-0.086 -1.143,-0.122 -0.717,1.063 -0.666,1.961 0.034,2.963 2.448,3.498 4.772,7.087 7.277,10.544 1.617,2.231 3.498,4.269 5.209,6.434 1.259,1.594 2.643,3.141 3.608,4.907 2.632,4.817 -0.531,9.674 -6.007,9.498 -2.558,-0.083 -4.691,-1.164 -6.747,-2.509 -0.494,-0.324 -0.913,-0.809 -1.762,-0.137 0.241,0.571 0.44,1.243 0.786,1.828 0.906,1.526 1.908,2.995 2.804,4.526 0.429,0.735 0.983,1.081 1.799,1.353 2.704,0.9 5.447,0.876 8.204,0.562 4.629,-0.529 8.073,-3.661 8.857,-8.249 0.499,-2.914 0.226,-5.684 -1.988,-8.098 C 9.74,11.627 5.917,7.109 2.037,2.641 1.362,1.863 0.773,1.007 0,0" /></g><g
           transform="translate(461.8984,478.0537)"
           id="g44"><path
             id="path46"
             style="fill:#000000;fill-opacity:1;fill-rule:evenodd;stroke:none"
             d="M 0,0 C 0.343,0.043 0.932,0.09 1.516,0.193 3.3,0.508 3.876,1.219 3.844,3.011 3.778,6.774 -0.761,9.464 -4.08,7.75 -5.961,6.778 -7.13,5.235 -7.687,3.282 -8.043,2.043 -8.28,0.692 -8.184,-0.58 -8.077,-1.97 -6.82,-2.35 -5.99,-1.266 -4.805,0.281 -3.368,0.542 -1.625,0.176 -1.178,0.081 -0.711,0.073 0,0 m 8.914,-10.756 c -0.155,-0.577 -0.136,-1.309 -0.491,-1.706 -1.486,-1.654 -2.927,-3.429 -4.704,-4.711 -0.999,-0.719 -2.639,-0.808 -3.969,-0.752 -5.165,0.221 -9.238,2.433 -11.74,7.093 -1.344,2.497 -1.563,5.286 -1.766,8.048 -0.405,5.477 2.144,9.518 6.416,12.566 2.503,1.786 5.394,1.875 8.323,1.186 C 4.169,10.218 6.562,8.467 8.157,5.562 9.307,3.467 9.806,1.269 9.639,-1.085 9.507,-2.941 8.701,-3.688 6.85,-3.648 c -2.039,0.044 -4.077,0.245 -6.116,0.253 -1.773,0.007 -3.554,-0.086 -5.316,-0.272 -2.092,-0.221 -2.809,-1.426 -1.93,-3.26 1.514,-3.163 4.146,-4.812 7.576,-5.217 1.944,-0.229 3.785,0.25 5.568,0.992 0.594,0.248 1.193,0.481 1.789,0.721 0.164,-0.109 0.329,-0.216 0.493,-0.325" /></g><g
           transform="translate(506.2598,494.0391)"
           id="g48"><path
             id="path50"
             style="fill:#000000;fill-opacity:1;fill-rule:evenodd;stroke:none"
             d="M 0,0 C 0.088,0.713 -0.024,1.352 0.227,1.568 1.819,2.94 3.066,4.888 5.63,4.684 7.724,4.518 9.835,4.565 11.938,4.517 c 1.76,-0.041 1.938,-0.179 1.918,-1.939 -0.066,-6.515 -0.173,-13.029 -0.241,-19.544 -0.052,-5 -0.064,-10.001 -0.094,-15.002 -0.004,-0.779 0,-1.558 0,-2.491 -1.934,-0.344 -3.703,-0.27 -5.42,-0.012 -1.018,0.153 -1.367,1.171 -1.367,2.158 -0.005,2.238 0,4.477 0.055,6.714 0.155,6.376 0.326,12.753 0.516,19.128 0.035,1.249 0.22,2.492 0.28,3.741 C 7.704,-0.156 7.097,0.492 4.561,0.399 3.131,0.347 1.705,0.154 0,0" /></g><g
           transform="translate(491.7988,478.2778)"
           id="g52"><path
             id="path54"
             style="fill:#000000;fill-opacity:1;fill-rule:evenodd;stroke:none"
             d="M 0,0 C -0.807,0.919 -1.287,1.451 -1.749,2 -2.885,3.349 -4.401,3.792 -6.021,3.409 -7.73,3.003 -8.602,1.675 -8.802,-0.049 c -0.097,-0.847 -0.167,-1.706 -0.134,-2.555 0.168,-4.138 0.385,-8.274 0.56,-12.412 0.032,-0.719 0.082,-1.484 -0.123,-2.153 -0.198,-0.646 -0.581,-1.391 -1.114,-1.752 -2.184,-1.479 -5.376,-0.019 -5.479,2.579 -0.11,2.75 -0.087,5.535 0.227,8.264 0.446,3.892 0.203,7.75 -0.098,11.611 -0.143,1.819 -0.758,3.502 -2.875,4.009 -0.185,0.044 -0.427,0.143 -0.504,0.289 -0.229,0.423 -0.532,0.891 -0.512,1.328 0.009,0.206 0.682,0.536 1.063,0.548 1.906,0.058 3.816,0.031 5.724,0.033 0.782,10e-4 1.561,10e-4 2.299,10e-4 1.097,-1.308 0.368,-3.23 1.76,-4.491 0.399,0.387 0.752,0.652 1.004,0.992 0.309,0.422 0.454,0.982 0.809,1.345 0.83,0.85 0.933,2.58 2.507,2.494 C -1.719,9.973 0.261,9.654 1.75,8.127 2.443,7.417 2.756,6.549 2.372,5.593 1.667,3.841 0.9,2.115 0,0" /></g><g
           transform="translate(438.2432,476.3857)"
           id="g56"><path
             id="path58"
             style="fill:#000000;fill-opacity:1;fill-rule:evenodd;stroke:none"
             d="m 0,0 c -0.134,4.868 -0.25,9.738 -0.411,14.606 -0.027,0.848 -0.238,1.689 -0.36,2.535 -0.177,1.219 -0.834,2.073 -1.991,2.487 -0.768,0.276 -1.382,0.727 -1.14,1.565 0.217,0.753 0.948,1.054 1.749,0.987 2.096,-0.178 4.197,-0.344 6.289,-0.562 0.903,-0.094 1.312,-0.593 1.335,-1.593 0.132,-5.854 0.314,-11.706 0.513,-17.558 0.134,-3.945 0.325,-7.888 0.49,-11.833 0.088,-2.103 0.207,-4.205 0.253,-6.309 0.036,-1.608 -0.2,-1.805 -1.823,-1.81 -0.79,-0.002 -1.582,-0.008 -2.371,0.031 -1.768,0.085 -2.242,0.522 -2.293,2.26 -0.095,3.222 -0.151,6.446 -0.2,9.67 -0.025,1.839 -0.003,3.68 -0.003,5.519 C 0.024,-0.003 0.011,-0.002 0,0" /></g><g
           transform="translate(414.1558,230.1846)"
           id="g60"><path
             id="path62"
             style="fill:#000000;fill-opacity:1;fill-rule:evenodd;stroke:none"
             d="M 0,0 C -5.418,0 -33.733,17.728 -33.733,70.913 H 31.516 C 31.516,21.421 5.417,0 0,0 m 132.157,137.985 c 1.047,1.901 1.887,3.926 1.881,6.175 -0.01,3.027 -2.276,3.841 -4.37,2.444 -3.28,-2.19 -6.641,-4.259 -9.963,-6.387 -0.538,-0.345 -1.041,-0.766 -2.01,-0.432 0.415,1.65 0.827,3.22 1.204,4.799 0.332,1.406 0.806,2.81 0.893,4.235 0.168,2.76 0.159,5.534 0.128,8.301 -0.022,2.036 -0.177,4.072 -0.311,6.106 -0.05,0.75 -0.296,1.489 -1.129,1.678 -0.772,0.174 -1.414,-0.181 -1.852,-0.856 -0.357,-0.554 -0.779,-1.075 -1.063,-1.664 -0.626,-1.291 -1.574,-2.205 -2.77,-2.998 -0.784,-0.519 -1.375,-1.368 -1.962,-2.138 -0.747,-0.977 -1.241,-2.206 -2.133,-3.003 -2.498,-2.23 -5.139,-4.302 -7.734,-6.424 -1.811,-1.481 -3.937,-2.372 -6.108,-3.156 -1.096,-0.396 -1.711,0.076 -1.555,1.214 0.152,1.104 0.421,2.196 0.688,3.281 0.771,3.125 1.694,6.206 1.57,9.498 -0.117,3.09 0.089,6.194 -0.087,9.278 -0.102,1.813 -0.449,3.685 -1.093,5.375 -0.754,1.969 -1.833,2.134 -3.547,1.057 -2.53,-1.589 -4.657,-3.527 -6.435,-5.993 -2.558,-3.549 -6.099,-6.322 -8.058,-10.393 -1.019,-2.121 -2.543,-3.995 -3.744,-6.036 -0.687,-1.169 -1.188,-2.448 -1.902,-3.951 -8.781,9.068 -11.483,19.983 -11.153,32.005 -1.315,0.332 -2.536,0.607 -3.269,-0.703 -1.755,-3.139 -3.841,-6.129 -4.426,-9.818 -0.338,-2.143 -0.93,-4.245 -1.29,-6.384 -0.568,-3.372 -1.325,-6.748 -1.479,-10.146 -0.236,-5.097 0.571,-10.128 2.406,-14.927 1.368,-3.581 3.053,-6.994 5.843,-9.748 0.933,-0.921 1.749,-1.967 2.585,-2.984 0.487,-0.593 0.563,-1.15 0.178,-1.966 -1.458,-3.094 -2.808,-6.24 -4.117,-9.402 -0.909,-2.2 -1.462,-4.48 -1.286,-6.917 0.114,-1.573 0.055,-3.167 -0.031,-4.745 -0.23,-4.252 -0.066,-8.43 1.849,-12.36 0.158,-0.324 0.132,-0.739 0.19,-1.107 -1.174,-0.308 -2.255,-0.548 -3.308,-0.874 -2.361,-0.731 -4.703,-1.199 -7.099,-0.106 -0.589,0.27 -1.259,0.429 -1.907,0.501 -2.979,0.334 -5.691,1.518 -8.481,2.5 -4.293,1.512 -6.925,4.842 -9.552,8.223 -0.152,0.197 -0.207,0.48 -0.275,0.731 -0.467,1.711 -0.95,3.418 -1.375,5.14 -0.278,1.134 -0.168,2.215 0.876,3.196 4.207,-1.74 7.402,-4.737 10.196,-8.665 0.58,0.721 0.887,1.253 1.33,1.626 1.329,1.119 1.573,2.523 1.2,4.107 -0.15,0.638 -0.282,1.314 -0.597,1.873 -1.452,2.575 -2.863,5.182 -4.48,7.651 -2.217,3.389 -4.159,6.797 -4.75,10.941 -0.575,4.028 -1.297,8.079 -3.026,11.83 -1.429,3.096 -2.634,6.352 -5.579,8.459 -0.369,0.265 -0.662,0.642 -0.975,0.979 -0.56,0.604 -0.625,1.244 -0.231,1.99 0.736,1.397 1.379,2.843 2.131,4.231 1.257,2.31 2.739,4.509 3.347,7.119 0.404,1.731 0.786,3.465 1.179,5.198 0.632,2.783 0.887,5.596 0.515,8.432 -0.119,0.906 -0.347,1.825 -0.702,2.663 -0.727,1.724 -1.9,1.9 -3.169,0.489 -0.47,-0.524 -0.798,-1.194 -1.116,-1.837 -0.995,-2.017 -2.111,-3.948 -3.783,-5.489 -2.719,-2.504 -5.837,-4.47 -9.064,-6.201 -3.178,-1.705 -3.213,-1.486 -5.552,0.581 -0.198,0.173 -0.38,0.365 -0.57,0.547 -3.284,3.167 -7.145,4.269 -11.617,3.31 -1.48,-0.317 -2.99,-0.491 -4.482,-0.755 -3.261,-0.577 -6.154,-1.727 -8.206,-4.582 -1.066,-1.483 -2.481,-2.717 -3.766,-4.036 -0.518,-0.53 -1.067,-0.811 -1.933,-0.552 -4.169,1.245 -8.064,0.602 -11.572,-2.008 -2.382,-1.772 -4.523,-3.782 -6.417,-6.106 -2.872,-3.522 -2.361,-7.566 -2.451,-11.542 2.458,-0.5 3.142,-0.252 4.285,1.475 0.472,0.713 0.852,1.487 1.32,2.204 0.317,0.486 0.654,0.988 1.086,1.366 2.846,2.506 6.242,2.828 9.802,2.335 1.028,-0.142 1.796,-0.8 2.333,-1.68 0.323,-0.531 0.263,-1.119 -0.34,-1.325 -2.217,-0.759 -4.408,-1.744 -6.802,-0.397 -1.457,0.82 -2.686,0.407 -3.808,-0.967 -0.967,-1.184 -1.238,-2.604 -1.364,-4.058 -0.218,-2.529 0.138,-3.933 3.2,-5.166 3.269,-1.317 6.656,-1.486 10.095,-0.75 0.708,0.151 1.414,0.354 2.13,0.413 0.938,0.077 1.5,-0.431 1.629,-1.319 0.294,-2.02 -0.776,-3.932 -2.71,-4.673 -3.502,-1.341 -7.029,-2.619 -10.533,-3.954 -0.669,-0.254 -1.292,-0.632 -1.924,-0.976 -2.242,-1.222 -3.466,-3.405 -4.849,-5.378 -2.415,-3.444 -2.728,-7.338 -1.769,-11.335 0.563,-2.338 1.936,-2.906 3.94,-1.63 1.715,1.093 3.298,2.393 4.938,3.604 1.604,1.184 3.303,2.176 5.282,2.594 2.64,0.558 5.333,-0.793 6.299,-3.234 1.02,-2.578 0.931,-6.019 -1.951,-7.476 -3.966,-2.005 -7.788,-4.522 -12.56,-4.081 -0.322,0.03 -0.654,-0.099 -0.981,-0.11 -5.013,-0.158 -4.015,-0.617 -5.922,3.612 -1.244,2.759 -2.216,5.677 -3.742,8.267 -3.125,5.302 -5.346,10.86 -5.957,17.003 -0.11,1.1 -0.152,2.26 0.069,3.331 0.709,3.417 1.624,6.792 2.331,10.211 0.772,3.733 1.635,7.47 2.028,11.251 0.408,3.919 0.28,7.891 0.423,11.838 0.16,4.381 -0.205,8.7 -1.753,12.823 -0.664,1.771 -1.568,3.48 -2.577,5.083 -0.752,1.19 -1.892,1.17 -2.826,0.111 -0.698,-0.792 -1.259,-1.718 -1.022,-2.873 0.212,-1.029 0.369,-2.08 0.697,-3.073 0.53,-1.608 0.638,-3.224 0.368,-4.872 -0.244,-1.496 -0.437,-3.011 -0.833,-4.468 -0.462,-1.701 -0.945,-3.438 -1.738,-4.999 -1.059,-2.085 -2.447,-3.998 -4.228,-5.936 -0.331,0.679 -0.591,1.112 -0.763,1.578 -1.906,5.174 -4.591,9.791 -8.452,13.853 -3.303,3.475 -7.247,5.593 -11.565,7.255 -0.55,0.212 -1.393,0.257 -1.862,-0.021 -2.559,-1.519 -3.751,-3.915 -2.327,-6.85 0.489,-1.007 1.07,-1.969 1.617,-2.947 1.144,-2.04 1.99,-4.194 1.995,-6.555 0.005,-3.094 -0.064,-6.19 -0.213,-9.28 -0.047,-0.991 -0.089,-2.129 -1.252,-2.788 -1.865,0.759 -3.734,1.524 -5.608,2.28 -0.178,0.072 -0.388,0.065 -0.574,0.126 -0.992,0.326 -2.093,0.483 -2.951,1.025 -4.888,3.078 -9.943,5.917 -13.847,10.359 -1.644,1.87 -2.978,3.83 -3.793,6.165 -0.253,0.725 -0.562,1.428 -0.932,2.36 -1.782,-2.048 -3.078,-4.057 -2.854,-6.666 0.344,-3.998 0.711,-7.997 1.199,-11.98 0.468,-3.816 1.932,-7.374 3.133,-10.997 0.231,-0.694 0.363,-1.423 0.607,-2.404 -3.234,1.167 -4.806,3.79 -6.95,5.632 -2.127,1.828 -3.558,4.465 -5.505,7.024 -0.89,-1.526 -1.679,-2.796 -2.371,-4.119 -0.195,-0.375 -0.235,-0.934 -0.125,-1.35 0.841,-3.172 1.396,-6.478 2.695,-9.457 1.936,-4.445 4.163,-8.816 7.731,-12.279 1.504,-1.461 1.535,-3.003 0.61,-4.827 -1.19,-2.343 -2.356,-4.725 -3.225,-7.198 -1.064,-3.032 -1.963,-6.142 -2.658,-9.278 -0.928,-4.186 -1.539,-8.438 -1.138,-12.755 0.066,-0.714 0.149,-1.469 0.433,-2.112 0.611,-1.386 2.018,-1.638 3.012,-0.483 0.67,0.779 1.15,1.757 1.564,2.71 0.655,1.51 1.069,3.131 1.808,4.592 0.452,0.89 1.218,1.711 2.031,2.305 1.09,0.798 2.127,0.448 2.691,-0.782 0.233,-0.509 0.32,-1.155 0.258,-1.715 -0.303,-2.747 -0.55,-5.511 -1.06,-8.223 -0.687,-3.651 -0.863,-7.323 -0.836,-11.014 0.007,-0.908 0.137,-1.886 0.505,-2.697 0.258,-0.57 0.963,-1.099 1.576,-1.277 0.338,-0.095 1.021,0.484 1.328,0.915 0.528,0.743 0.952,1.582 1.3,2.429 0.85,2.071 1.628,4.171 2.441,6.257 0.927,2.376 2.228,4.463 4.449,5.864 1.601,1.011 3.149,0.792 4.621,-0.216 1.246,-0.854 1.492,-2.126 0.886,-4.11 -0.685,-2.24 -1.838,-4.229 -3.397,-5.962 -2.13,-2.369 -4.069,-4.845 -4.991,-7.968 -0.315,-1.07 -0.724,-2.12 -0.951,-3.209 -0.535,-2.577 -1.356,-5.168 -1.39,-7.761 -0.054,-4.264 0.426,-8.537 0.672,-12.807 0.058,-1.013 0.411,-1.834 1.475,-2.075 1.007,-0.231 1.818,0.167 2.349,1.055 0.709,1.185 1.388,2.386 2.087,3.578 0.73,1.243 1.368,2.554 2.225,3.703 1.055,1.41 2.62,1.779 4.348,1.722 0.038,-0.325 0.102,-0.519 0.077,-0.702 -0.637,-4.634 -1.075,-9.279 -0.686,-13.965 0.42,-5.051 0.832,-10.103 1.317,-15.149 0.101,-1.049 0.487,-2.103 1.74,-2.381 0.81,-0.179 1.66,0.551 2.155,1.954 0.61,1.737 1.237,3.479 1.639,5.268 0.739,3.294 2.279,6.181 4.324,8.784 1.289,1.641 2.823,3.1 4.33,4.554 0.782,0.754 1.532,0.656 2.2,-0.188 0.348,-0.441 0.572,-1.029 0.706,-1.587 1.419,-5.884 2.803,-11.777 4.209,-17.665 0.581,-2.433 1.225,-4.852 1.768,-7.293 0.223,-0.995 0.742,-1.488 1.735,-1.546 1,-0.057 1.637,0.422 1.947,1.335 0.212,0.622 0.397,1.261 0.516,1.906 0.377,2.017 1.507,3.619 2.742,5.182 0.97,1.226 2.379,1.614 3.749,2.047 0.372,0.118 1.049,-0.01 1.275,-0.281 0.74,-0.895 1.69,-1.835 1.904,-2.89 0.32,-1.578 0.391,-3.343 0.017,-4.895 -0.65,-2.692 -1.262,-5.361 -1.546,-8.124 -0.357,-3.466 -0.96,-6.908 -1.363,-10.37 -0.096,-0.817 0.021,-1.743 0.328,-2.501 0.511,-1.263 1.744,-1.439 2.704,-0.465 0.501,0.507 0.892,1.127 1.304,1.718 1.148,1.641 2.439,3.084 4.471,3.664 1.452,0.416 2.988,0.712 4.301,1.411 2.484,1.322 5.151,1.538 7.834,1.647 2.092,0.085 2.601,-0.612 2.592,-2.758 -0.016,-4.236 -2.218,-7.517 -5.22,-9.996 -2.965,-2.448 -6.493,-4.222 -9.806,-6.237 -1.43,-0.871 -2.742,-1.798 -3.415,-3.413 -0.916,-2.203 -0.292,-3.769 1.956,-4.503 3.295,-1.075 6.654,-1.496 10.09,-0.688 0.425,0.1 0.871,0.11 1.457,0.179 -0.046,-3.362 -1.064,-6.165 -3.315,-8.498 -2.812,-2.917 -6.275,-4.452 -10.268,-4.946 -1.623,-0.201 -3.071,-0.119 -4.44,0.962 -1.278,1.006 -2.366,0.785 -3.432,-0.416 -1.796,-2.022 -1.666,-4.015 0.442,-5.823 2.341,-2.007 5.075,-3.246 8.037,-4.049 1.783,-0.486 1.862,-0.673 1.704,-2.493 -0.273,-3.152 -0.588,-6.301 -0.797,-9.458 -0.063,-0.964 0.035,-1.984 0.289,-2.916 0.299,-1.103 1.19,-1.512 2.322,-1.24 0.504,0.12 1.002,0.331 1.459,0.581 3.184,1.742 6.177,3.729 8.433,6.658 0.52,0.675 1.173,1.244 1.721,1.899 0.504,0.603 1.041,0.655 1.753,0.383 1.785,-0.681 3.637,-1.214 4.872,-2.847 0.18,-0.237 0.538,-0.339 1.054,-0.647 0.775,1.069 1.814,2.003 2.229,3.163 1.835,5.118 2.144,10.408 1.224,15.758 -0.152,0.892 -0.553,1.738 -0.807,2.616 -0.365,1.255 -0.76,2.504 -1.026,3.781 -0.168,0.807 0.128,1.543 1.063,2.158 0.454,-0.546 0.997,-1.021 1.315,-1.617 0.899,-1.683 1.696,-3.419 2.552,-5.126 0.805,-1.605 1.927,-1.769 2.961,-0.305 0.634,0.898 1.109,1.957 1.432,3.011 0.805,2.623 0.838,5.3 0.331,8.004 -0.709,3.778 -0.977,7.582 -0.246,11.393 0.135,0.704 0.338,1.424 0.675,2.048 0.488,0.901 1.423,0.926 2.102,0.127 0.21,-0.245 0.36,-0.552 0.496,-0.85 1.61,-3.522 3.588,-6.952 4.337,-10.756 0.924,-4.701 1.613,-9.484 1.919,-14.262 0.391,-6.086 -0.793,-12.057 -2.45,-17.907 -0.482,-1.702 -0.996,-3.451 -1.856,-4.973 -0.929,-1.642 -2.262,-3.058 -3.45,-4.548 -2.088,-2.617 -4.192,-5.224 -6.309,-7.819 -1.117,-1.37 -1.668,-2.808 -0.745,-4.595 1.902,-0.233 3.775,-0.267 5.665,0.164 3.803,0.869 7.076,2.767 10.18,5.039 0.719,0.526 1.538,0.917 2.431,1.442 0.419,-0.662 0.771,-1.13 1.032,-1.645 1.789,-3.525 3.508,-7.087 5.356,-10.582 0.947,-1.789 1.973,-3.572 3.224,-5.153 1.073,-1.358 2.022,-1.223 3.016,0.239 1.183,1.74 2.339,3.52 3.276,5.398 1.323,2.65 2.423,5.409 3.641,8.111 0.397,0.877 0.629,1.892 1.355,2.218 4.294,-1.633 8.335,-3.189 12.389,-4.701 0.859,-0.321 1.764,-0.577 2.671,-0.699 1.398,-0.188 2.544,0.648 3.176,2.144 0.653,1.549 0.464,2.461 -0.729,3.52 -0.489,0.435 -1.059,0.809 -1.454,1.318 -2.791,3.596 -5.068,7.493 -7.081,11.582 -1.555,3.154 -2.461,6.518 -3.725,9.762 -1.532,3.932 -2.73,7.916 -3.325,12.131 -0.697,4.955 -0.422,9.823 0.257,14.727 0.341,2.459 1.395,4.652 2.216,6.941 0.662,1.852 1.819,3.345 3.179,4.7 3.289,3.277 7.908,1.724 9.35,-2.315 0.748,-2.092 1.213,-4.295 0.88,-6.577 -0.113,-0.777 -0.126,-1.573 -0.169,-2.361 -0.244,-4.353 -0.672,-8.661 -2.617,-12.671 -0.332,-0.687 -0.485,-1.523 -0.49,-2.292 -0.013,-1.722 1.558,-2.59 3.002,-1.688 0.548,0.341 1.086,0.789 1.459,1.31 1.569,2.183 3.654,3.768 5.859,5.224 0.628,0.416 1.33,0.721 2.228,1.198 0.285,-1.09 0.63,-1.886 0.684,-2.702 0.406,-6.02 -0.005,-11.966 -1.591,-17.821 -0.485,-1.787 -0.944,-3.61 -1.066,-5.84 0.576,0.489 0.863,0.735 1.152,0.98 1.759,1.488 3.486,3.015 5.287,4.453 2.232,1.786 4.951,1.884 7.313,0.886 2.427,-1.026 5.131,-2.25 5.329,-5.698 0.08,-1.39 1.531,-2.149 2.609,-1.535 1.095,0.621 2.061,1.46 2.145,2.879 0.045,0.722 0.003,1.451 0.066,2.171 0.209,2.421 0.16,4.911 0.749,7.238 0.704,2.774 2.535,4.206 5.328,4.01 0.392,-0.029 0.798,-0.087 1.183,-0.027 1.268,0.201 2.418,0.68 3.197,1.757 0.951,1.312 0.574,2.565 -0.927,3.15 -0.426,0.166 -0.891,0.231 -1.334,0.36 -3.645,1.07 -7.476,1.515 -10.821,3.577 -2.527,1.558 -4.73,3.317 -5.787,6.203 -0.528,1.448 -0.286,2.738 0.993,3.451 1.182,0.659 2.55,1.353 3.842,1.367 2.801,0.027 4.349,1.698 6.162,3.636 -0.917,0.507 -1.575,0.926 -2.276,1.251 -2.608,1.208 -5.248,2.347 -7.899,3.463 -4.326,1.824 -7.382,5.108 -9.165,9.572 -1.447,3.62 0.722,8.956 3.473,10.757 0.327,0.213 0.697,0.362 1.05,0.533 4.328,2.08 9.829,-1.386 11.072,-5.249 1.226,-3.807 2.788,-7.539 3.059,-11.615 0.039,-0.552 0.48,-1.294 0.953,-1.551 0.78,-0.423 1.443,0.282 1.753,0.891 0.591,1.163 1.182,2.39 1.423,3.658 0.786,4.137 1.405,8.292 1.23,12.547 -0.154,3.815 -0.154,7.645 -0.043,11.464 0.063,2.159 0.556,4.282 2.154,5.968 3.071,-1.16 5.418,-2.867 6.065,-6.234 0.05,-0.255 0.164,-0.506 0.296,-0.731 0.815,-1.394 2.33,-1.492 3.144,-0.099 0.448,0.766 0.749,1.721 0.778,2.601 0.181,5.413 -0.034,10.783 -2.337,15.836 -0.081,0.177 -0.137,0.378 -0.149,0.572 -0.148,2.931 -1.599,5.397 -2.825,7.945 -0.238,0.497 -0.415,1.025 -0.673,1.665 2.61,0.745 4.92,0.42 7.18,-0.367 5.902,-2.061 9.596,-6.489 12.462,-11.77 0.531,-0.979 0.891,-2.061 1.481,-3.001 0.841,-1.34 2.046,-1.394 3.054,-0.164 0.445,0.543 0.802,1.223 0.989,1.9 0.854,3.077 1.065,6.213 0.715,9.39 -0.429,3.898 -1.562,7.589 -3.086,11.19 -0.756,1.789 -1.171,3.697 -1.381,5.969 0.93,-0.247 1.557,-0.362 2.147,-0.579 1.606,-0.592 3.171,-1.316 4.804,-1.823 1.754,-0.546 3.178,-1.488 4.461,-2.786 1.046,-1.059 1.796,-2.226 2.329,-3.611 0.23,-0.594 0.819,-1.306 1.382,-1.459 0.923,-0.248 1.552,0.523 1.979,1.312 0.249,0.463 0.565,0.942 0.629,1.441 0.248,1.885 0.67,3.801 0.535,5.67 -0.219,3.008 -0.726,6.007 -1.3,8.972 -0.473,2.453 -1.077,4.932 -2.614,6.982 -1.455,1.943 -3.069,3.77 -4.615,5.649 -1.546,1.88 -3.16,3.708 -4.612,5.656 -0.93,1.248 -1.556,2.688 -1.238,4.46 0.684,-0.036 1.257,0.074 1.707,-0.112 2.249,-0.922 4.584,-1.774 6.073,-3.864 1.33,-1.867 2.805,-3.655 3.498,-5.916 0.189,-0.617 0.56,-1.195 0.922,-1.741 0.947,-1.426 2.05,-1.496 3.236,-0.242 0.903,0.955 1.343,2.094 1.344,3.408 0.001,2.241 0.105,4.487 -0.001,6.721 -0.112,2.285 -0.134,4.633 -1.618,6.601 -0.988,1.313 -2.024,2.594 -2.942,3.955 -0.338,0.501 -0.711,1.316 -0.527,1.77 0.688,1.711 0.365,3.193 -0.56,4.66 -0.025,0.04 0.126,0.191 0.193,0.293 2.729,-0.781 5.759,-2.429 7.605,-4.311 0.574,-0.585 0.984,-1.381 1.308,-2.148 0.538,-1.271 0.847,-2.639 1.428,-3.884 0.605,-1.291 2.009,-1.496 2.869,-0.397 0.581,0.742 1.147,1.722 1.189,2.621 0.256,5.483 -0.074,10.932 -1.505,16.267 -0.896,3.348 -2.246,6.467 -4.645,9.047 -0.699,0.75 -1.389,1.508 -2.099,2.279 1.794,1.934 3.446,3.716 5.098,5.499 3.914,4.222 7.173,8.919 9.947,13.949" /></g><g
           transform="translate(395.5586,251.3877)"
           id="g64"><path
             id="path66"
             style="fill:#000000;fill-opacity:1;fill-rule:evenodd;stroke:none"
             d="m 0,0 45.965,35.037 c 0,0 0.992,5.399 0.773,11.311 H -12 C -11.724,16.892 0,0 0,0" /></g><g
           transform="translate(265.5054,519.6069)"
           id="g68"><path
             id="path70"
             style="fill:none;stroke:#000000;stroke-width:7;stroke-linecap:butt;stroke-linejoin:miter;stroke-miterlimit:10;stroke-dasharray:none;stroke-opacity:1"
             d="M 0,0 V -83.647 H 296.202 V -71.046 0 Z" /></g><g
           transform="translate(561.707,435.9595)"
           id="g72"><path
             id="path74"
             style="fill:none;stroke:#000000;stroke-width:7;stroke-linecap:butt;stroke-linejoin:miter;stroke-miterlimit:10;stroke-dasharray:none;stroke-opacity:1"
             d="m 0,0 v -172.119 c 0,0 -3.974,-25.4 -6.221,-33.656 -2.258,-8.292 -8.823,-24.263 -12.594,-31.984 -4.746,-9.718 -16.512,-27.96 -22.775,-36.777 -5.72,-8.051 -18.683,-23.064 -25.78,-29.933 -6.507,-6.298 -28.594,-22.237 -28.594,-22.237 0,0 -19.2,-12.882 -26.113,-16.25 -5.606,-2.73 -23.432,-8.552 -23.432,-8.552 l -26.396,11.118 c 0,0 -24.193,12.839 -31.929,17.676 -7.421,4.639 -21.546,15.118 -27.938,21.095 -7.545,7.056 -20.317,23.458 -26.228,31.93 -6.537,9.367 -17.366,29.58 -22.237,39.912 -3.23,6.852 -8.287,21.195 -10.263,28.508 -2.052,7.596 -5.702,30.951 -5.702,30.951 V 0" /></g></g></g></g></svg>